<!-- Created with Inkscape (http://www.inkscape.org/) -->
<svg viewBox="0 0 105 20" xmlns="http://www.w3.org/2000/svg">
<title>nazares logo</title>
<rect width="105" height="20" rx="5.3" ry="6" fill="#fff"/>
<path d="m9.3 5.1 1.2 1.9-5.5 3.2 7.7 4.5-1.2 1.9-8.8-5.5v-1.9zm2.7 13-2.1-0.96 7.7-16 2.1 0.96z" fill="#f55" stroke-width=".71"/>
<path d="m23 16v-9.1h2.4l0.19 1q0.61-0.68 1.3-1 0.67-0.33 1.5-0.33 1.2 0 1.8 0.71 0.67 0.71 0.67 2v6.7h-2.7v-5.9q0-0.55-0.077-0.88-0.077-0.33-0.27-0.47-0.19-0.15-0.52-0.15-0.28 0-0.55 0.13-0.26 0.12-0.52 0.35-0.26 0.23-0.51 0.55v6.3z" stroke-width=".71"/>
<path d="m41 13q0 0.51 0.14 0.74 0.15 0.23 0.46 0.35l-0.55 1.8q-0.8-0.077-1.4-0.35-0.55-0.28-0.86-0.84-0.52 0.62-1.3 0.93-0.81 0.3-1.7 0.3-1.4 0-2.2-0.79-0.83-0.8-0.83-2.1 0-1.5 1.2-2.3 1.2-0.8 3.3-0.8h1.2v-0.34q0-0.71-0.46-1-0.45-0.34-1.3-0.34-0.44 0-1.1 0.13-0.68 0.12-1.4 0.35l-0.62-1.8q0.88-0.33 1.8-0.5 0.96-0.17 1.7-0.17 2 0 3 0.83 0.97 0.82 0.97 2.4zm-4.2 0.97q0.44 0 0.91-0.26 0.48-0.26 0.73-0.74v-1.5h-0.67q-1.1 0-1.7 0.35-0.53 0.34-0.53 1 0 0.52 0.32 0.82 0.32 0.29 0.9 0.29z" stroke-width=".71"/>
<path d="m47 14h4.5l-0.26 2h-7.5v-1.9l4.5-5.1h-4.1v-2h7.3v1.9z" stroke-width=".71"/>
<path d="m61 13q0 0.51 0.14 0.74 0.15 0.23 0.46 0.35l-0.55 1.8q-0.8-0.077-1.4-0.35-0.55-0.28-0.86-0.84-0.52 0.62-1.3 0.93-0.81 0.3-1.7 0.3-1.4 0-2.2-0.79-0.83-0.8-0.83-2.1 0-1.5 1.2-2.3 1.2-0.8 3.3-0.8h1.2v-0.34q0-0.71-0.46-1-0.45-0.34-1.3-0.34-0.44 0-1.1 0.13-0.68 0.12-1.4 0.35l-0.62-1.8q0.88-0.33 1.8-0.5 0.96-0.17 1.7-0.17 2 0 3 0.83 0.97 0.82 0.97 2.4zm-4.2 0.97q0.44 0 0.91-0.26 0.48-0.26 0.73-0.74v-1.5h-0.67q-1.1 0-1.7 0.35-0.53 0.34-0.53 1 0 0.52 0.32 0.82 0.32 0.29 0.9 0.29z" stroke-width=".71"/>
<path d="m64 16v-1.8h1.2v-5.5h-1.2v-1.8h3.3l0.49 2q0.49-1.2 1.2-1.7 0.76-0.57 1.9-0.57 0.46 0 0.82 0.077 0.36 0.068 0.67 0.2l-0.82 2.2q-0.25-0.068-0.49-0.1-0.25-0.034-0.55-0.034-0.89 0-1.6 0.73-0.67 0.73-1 1.8v2.6h1.8v1.8zm6.1-5.3v-2.6l0.4-1.1h1.8l-0.5 3.8z" stroke-width=".71"/>
<path d="m77 12q0.094 0.74 0.38 1.2 0.3 0.45 0.76 0.67 0.46 0.2 1 0.2 0.62 0 1.2-0.2 0.58-0.2 1.1-0.55l1.1 1.5q-0.64 0.55-1.6 0.9-0.9 0.35-2.1 0.35-1.6 0-2.6-0.61-1-0.62-1.6-1.7-0.53-1.1-0.53-2.5 0-1.3 0.51-2.4 0.51-1.1 1.5-1.7 0.99-0.66 2.4-0.66 1.3 0 2.2 0.55 0.96 0.55 1.5 1.6 0.53 1 0.53 2.5 0 0.23-0.017 0.49-0.0085 0.26-0.034 0.47zm1.7-3.8q-0.73 0-1.2 0.52-0.44 0.52-0.54 1.7h3.3q-0.0085-0.99-0.38-1.6-0.38-0.6-1.2-0.6z" stroke-width=".71"/>
<path d="m93 12q0 1.1-0.58 1.9-0.57 0.84-1.6 1.3-1.1 0.48-2.6 0.48-1.7 0-2.8-0.49-1.1-0.49-1.9-1.2l1.4-1.6q0.66 0.57 1.5 0.89 0.79 0.31 1.7 0.31 0.59 0 1-0.17 0.44-0.17 0.69-0.49 0.25-0.32 0.25-0.78 0-0.44-0.2-0.73-0.2-0.3-0.67-0.54-0.46-0.24-1.3-0.49-1.4-0.43-2.2-0.94-0.84-0.51-1.2-1.2-0.38-0.67-0.38-1.6 0-1.1 0.6-1.9 0.61-0.77 1.6-1.2 1-0.41 2.2-0.41 1.4 0 2.4 0.4 1 0.39 1.8 1.1l-1.3 1.5q-0.6-0.5-1.3-0.74-0.69-0.25-1.4-0.25-0.53 0-0.93 0.14-0.4 0.13-0.62 0.38-0.22 0.26-0.22 0.64 0 0.38 0.21 0.63 0.21 0.26 0.74 0.49 0.53 0.22 1.5 0.52 1.1 0.34 1.9 0.82 0.8 0.47 1.2 1.2 0.43 0.72 0.43 1.8z" fill="#f55" stroke-width=".71"/>
<path d="m96 5.1 6.7 4.1v1.9l-6.6 4.1-1.2-1.8 5.5-3.3-5.5-3.2z" fill="#f55" stroke-width=".71"/>
</svg>
