<!-- Created with Inkscape (http://www.inkscape.org/) -->
<svg viewBox="0 0 141 24" xmlns="http://www.w3.org/2000/svg">
<title>nazares logo</title>
<path d="m9.4 4.9 1.7 2.6-7.8 4.5 11 6.4-1.7 2.7-12-7.7v-2.7zm3.9 19-3-1.4 11-22 2.9 1.4z" fill="#f55"/>
<path d="m29 20v-13h3.3l0.26 1.5q0.85-0.96 1.8-1.4t2.2-0.47q1.6 0 2.6 1t0.94 2.8v9.4h-3.8v-8.3q0-0.78-0.11-1.2-0.11-0.47-0.38-0.66-0.26-0.2-0.73-0.2-0.4 0-0.78 0.18-0.37 0.17-0.73 0.49t-0.72 0.78v8.9z"/>
<path d="m54 16q0 0.72 0.19 1 0.2 0.32 0.65 0.49l-0.78 2.5q-1.1-0.11-1.9-0.49-0.77-0.4-1.2-1.2-0.73 0.88-1.9 1.3-1.1 0.42-2.3 0.42-2 0-3.1-1.1-1.2-1.1-1.2-2.9 0-2.1 1.6-3.2 1.6-1.1 4.6-1.1h1.7v-0.48q0-1-0.65-1.5-0.64-0.48-1.9-0.48-0.61 0-1.6 0.18-0.96 0.17-1.9 0.49l-0.88-2.5q1.2-0.47 2.6-0.71 1.3-0.24 2.4-0.24 2.8 0 4.2 1.2 1.4 1.2 1.4 3.3zm-6 1.4q0.61 0 1.3-0.36 0.67-0.37 1-1v-2.1h-0.94q-1.6 0-2.3 0.49-0.74 0.48-0.74 1.4 0 0.73 0.44 1.2 0.46 0.41 1.3 0.41z"/>
<path d="m62 17h6.4l-0.36 2.9h-10v-2.7l6.3-7.2h-5.8v-2.9h10v2.7z"/>
<path d="m83 16q0 0.72 0.19 1 0.2 0.32 0.65 0.49l-0.78 2.5q-1.1-0.11-1.9-0.49-0.77-0.4-1.2-1.2-0.73 0.88-1.9 1.3-1.1 0.42-2.3 0.42-2 0-3.1-1.1-1.2-1.1-1.2-2.9 0-2.1 1.6-3.2 1.6-1.1 4.6-1.1h1.7v-0.48q0-1-0.65-1.5-0.64-0.48-1.9-0.48-0.61 0-1.6 0.18-0.96 0.17-1.9 0.49l-0.88-2.5q1.2-0.47 2.6-0.71 1.3-0.24 2.4-0.24 2.8 0 4.2 1.2 1.4 1.2 1.4 3.3zm-6 1.4q0.61 0 1.3-0.36 0.67-0.37 1-1v-2.1h-0.94q-1.6 0-2.3 0.49-0.74 0.48-0.74 1.4 0 0.73 0.44 1.2 0.46 0.41 1.3 0.41z"/>
<path d="m87 20v-2.5h1.7v-7.7h-1.7v-2.5h4.6l0.7 2.9q0.68-1.6 1.7-2.4 1.1-0.8 2.6-0.8 0.65 0 1.2 0.11 0.5 0.096 0.95 0.28l-1.2 3.1q-0.35-0.096-0.7-0.14t-0.77-0.048q-1.2 0-2.2 1-0.94 1-1.4 2.6v3.6h2.5v2.5zm8.6-7.4v-3.7l0.56-1.6h2.5l-0.71 5.3z"/>
<path d="m104 14q0.13 1 0.54 1.7 0.42 0.64 1.1 0.94 0.65 0.29 1.5 0.29 0.88 0 1.7-0.29t1.6-0.77l1.5 2.1q-0.9 0.77-2.2 1.3-1.3 0.49-2.9 0.49-2.2 0-3.7-0.86-1.5-0.88-2.2-2.4t-0.74-3.5q0-1.9 0.72-3.4 0.72-1.5 2.1-2.5 1.4-0.92 3.4-0.92 1.8 0 3.2 0.78 1.3 0.78 2.1 2.2 0.74 1.5 0.74 3.5 0 0.32-0.024 0.7-0.012 0.37-0.048 0.66zm2.4-5.4q-1 0-1.6 0.73t-0.76 2.3h4.7q-0.012-1.4-0.54-2.2t-1.7-0.84z"/>
<path d="m127 15q0 1.5-0.82 2.7-0.8 1.2-2.3 1.9t-3.6 0.67q-2.4 0-3.9-0.68-1.6-0.7-2.6-1.7l2-2.2q0.92 0.8 2 1.2 1.1 0.43 2.4 0.43 0.83 0 1.5-0.24t0.97-0.7 0.35-1.1q0-0.61-0.28-1t-0.94-0.76q-0.65-0.34-1.8-0.68-1.9-0.6-3.1-1.3-1.2-0.72-1.7-1.7-0.53-0.95-0.53-2.2 0-1.5 0.84-2.6 0.85-1.1 2.3-1.6 1.4-0.58 3.1-0.58 1.9 0 3.4 0.56 1.5 0.55 2.6 1.6l-1.9 2.1q-0.84-0.71-1.8-1-0.97-0.35-2-0.35-0.74 0-1.3 0.19-0.56 0.18-0.88 0.54t-0.31 0.9q0 0.53 0.3 0.89t1 0.68q0.74 0.31 2.1 0.73 1.6 0.48 2.7 1.2 1.1 0.66 1.7 1.7 0.6 1 0.6 2.5z" fill="#f55"/>
<path d="m131 4.9 9.4 5.8v2.7l-9.3 5.8-1.7-2.6 7.8-4.6-7.8-4.4z" fill="#f55"/>
</svg>
